<?xml version="1.0" encoding="utf-8"?>
<!-- Generator: Adobe Illustrator 19.0.0, SVG Export Plug-In . SVG Version: 6.00 Build 0)  -->
<svg version="1.1" id="Warstwa_1" xmlns="http://www.w3.org/2000/svg" xmlns:xlink="http://www.w3.org/1999/xlink" x="0px" y="0px"
	 viewBox="0 0 250 250" style="enable-background:new 0 0 250 250;" xml:space="preserve">
<style type="text/css">
	.st0{fill:#FFFFFF;}
</style>
<g id="XMLID_1_">
	<g id="XMLID_9_">
		<path id="XMLID_42_" class="st0" d="M237.9,44.2c-1-1-2.2-1.4-3.7-1.4H185l-11.1-26.6c-1.6-3.9-4.5-7.3-8.6-10
			C161.2,3.4,157,2,152.8,2h-50.9c-4.2,0-8.4,1.4-12.6,4.1c-4.1,2.8-7,6.1-8.6,10L69.5,42.7H20.4c-1.5,0-2.7,0.5-3.7,1.4
			c-1,1-1.4,2.2-1.4,3.7V58c0,1.5,0.5,2.7,1.4,3.7c1,1,2.2,1.4,3.7,1.4h15.3v151.5c0,8.8,2.5,16.3,7.5,22.5c5,6.2,11,9.3,18,9.3
			h132.4c7,0,13-3.2,18-9.6c5-6.4,7.5-14,7.5-22.8V63.1h15.3c1.5,0,2.7-0.5,3.7-1.4c1-1,1.4-2.2,1.4-3.7V47.8
			C239.3,46.4,238.8,45.1,237.9,44.2z M99.5,24.1c0.7-1,1.6-1.5,2.7-1.7h50.4c1.1,0.2,2,0.8,2.7,1.7l7.6,18.6H91.7L99.5,24.1z
			 M198.6,213.9c0,2.3-0.4,4.5-1.1,6.4c-0.7,2-1.5,3.4-2.3,4.3c-0.8,0.9-1.4,1.4-1.7,1.4H61.1c-0.3,0-0.9-0.4-1.7-1.4
			c-0.8-0.9-1.6-2.3-2.3-4.3c-0.7-2-1.1-4.1-1.1-6.4V63.1h142.6L198.6,213.9L198.6,213.9z"/>
		<path id="XMLID_10_" class="st0" d="M81.5,195.5h10.2c1.5,0,2.7-0.5,3.7-1.4c1-1,1.4-2.2,1.4-3.7V98.7c0-1.5-0.5-2.7-1.4-3.7
			c-1-1-2.2-1.4-3.7-1.4H81.5c-1.5,0-2.7,0.5-3.7,1.4c-1,1-1.4,2.2-1.4,3.7v91.6c0,1.5,0.5,2.7,1.4,3.7
			C78.8,195,80,195.5,81.5,195.5z"/>
		<path id="XMLID_37_" class="st0" d="M122.2,195.5h10.2c1.5,0,2.7-0.5,3.7-1.4c1-1,1.4-2.2,1.4-3.7V98.7c0-1.5-0.5-2.7-1.4-3.7
			c-1-1-2.2-1.4-3.7-1.4h-10.2c-1.5,0-2.7,0.5-3.7,1.4c-1,1-1.4,2.2-1.4,3.7v91.6c0,1.5,0.5,2.7,1.4,3.7
			C119.5,195,120.7,195.5,122.2,195.5z"/>
		<path id="XMLID_38_" class="st0" d="M162.9,195.5h10.2c1.5,0,2.7-0.5,3.7-1.4c1-1,1.4-2.2,1.4-3.7V98.7c0-1.5-0.5-2.7-1.4-3.7
			c-1-1-2.2-1.4-3.7-1.4h-10.2c-1.5,0-2.7,0.5-3.7,1.4c-1,1-1.4,2.2-1.4,3.7v91.6c0,1.5,0.5,2.7,1.4,3.7
			C160.2,195,161.4,195.5,162.9,195.5z"/>
	</g>
</g>
</svg>
